<svg xmlns="http://www.w3.org/2000/svg" width="64.507" height="58.98" viewBox="0 0 64.507 58.98">
  <g id="noun-blog-writing-5861560" transform="translate(-0.75 -3.51)">
    <path id="Path_10299" data-name="Path 10299" d="M54.8,45.2a.755.755,0,0,0-.75.75V58.31a2.187,2.187,0,0,1-2.19,2.18H4.93a2.185,2.185,0,0,1-2.18-2.18V15.84h51.3v4.5a.75.75,0,0,0,1.5,0V15.09h0V7.69a3.683,3.683,0,0,0-3.68-3.68H4.93A3.683,3.683,0,0,0,1.25,7.69V58.31a3.683,3.683,0,0,0,3.68,3.68H51.86a3.685,3.685,0,0,0,3.69-3.68V45.95A.755.755,0,0,0,54.8,45.2ZM2.75,7.69A2.185,2.185,0,0,1,4.93,5.51H51.86a2.185,2.185,0,0,1,2.18,2.18v6.65H2.75Z" fill="#0a81b1" stroke="#0a81b1" stroke-width="1"/>
    <path id="Path_10300" data-name="Path 10300" d="M7,55.49a.75.75,0,0,0,0,1.5H32.39a.75.75,0,0,0,0-1.5Z" fill="#0a81b1" stroke="#0a81b1" stroke-width="1"/>
    <path id="Path_10301" data-name="Path 10301" d="M49.8,19.34H30.25a.75.75,0,0,0,0,1.5H49.8a.75.75,0,0,0,0-1.5Z" fill="#0a81b1" stroke="#0a81b1" stroke-width="1"/>
    <path id="Path_10302" data-name="Path 10302" d="M50.55,26.12a.755.755,0,0,0-.75-.75H30.25a.75.75,0,0,0,0,1.5H49.8A.755.755,0,0,0,50.55,26.12Z" fill="#0a81b1" stroke="#0a81b1" stroke-width="1"/>
    <path id="Path_10303" data-name="Path 10303" d="M46.02,32.14a.755.755,0,0,0-.75-.75H30.26a.75.75,0,0,0,0,1.5H45.27A.749.749,0,0,0,46.02,32.14Z" fill="#0a81b1" stroke="#0a81b1" stroke-width="1"/>
    <path id="Path_10304" data-name="Path 10304" d="M41.27,38.16a.755.755,0,0,0-.75-.75H30.26a.75.75,0,1,0,0,1.5H40.52A.749.749,0,0,0,41.27,38.16Z" fill="#0a81b1" stroke="#0a81b1" stroke-width="1"/>
    <path id="Path_10305" data-name="Path 10305" d="M35.29,44.19a.755.755,0,0,0-.75-.75H7a.75.75,0,0,0,0,1.5H34.54A.749.749,0,0,0,35.29,44.19Z" fill="#0a81b1" stroke="#0a81b1" stroke-width="1"/>
    <path id="Path_10306" data-name="Path 10306" d="M34.21,50.21a.755.755,0,0,0-.75-.75H7a.75.75,0,0,0,0,1.5H33.46A.749.749,0,0,0,34.21,50.21Z" fill="#0a81b1" stroke="#0a81b1" stroke-width="1"/>
    <path id="Path_10307" data-name="Path 10307" d="M8.65,7.44a2.48,2.48,0,1,0,2.48,2.48A2.48,2.48,0,0,0,8.65,7.44Zm0,3.46a.98.98,0,1,1,0-1.96.969.969,0,0,1,.98.98A.982.982,0,0,1,8.65,10.9Z" fill="#0a81b1" stroke="#0a81b1" stroke-width="1"/>
    <path id="Path_10308" data-name="Path 10308" d="M15.79,7.44a2.48,2.48,0,1,0,2.48,2.48A2.48,2.48,0,0,0,15.79,7.44Zm0,3.46a.98.98,0,1,1,0-1.96.969.969,0,0,1,.98.98A.982.982,0,0,1,15.79,10.9Z" fill="#0a81b1" stroke="#0a81b1" stroke-width="1"/>
    <path id="Path_10309" data-name="Path 10309" d="M22.93,7.44a2.48,2.48,0,1,0,2.48,2.48A2.48,2.48,0,0,0,22.93,7.44Zm0,3.46a.98.98,0,0,1,0-1.96.969.969,0,0,1,.98.98A.982.982,0,0,1,22.93,10.9Z" fill="#0a81b1" stroke="#0a81b1" stroke-width="1"/>
    <path id="Path_10310" data-name="Path 10310" d="M64.72,25.89a4.762,4.762,0,0,0-1.78-3.19,4.686,4.686,0,0,0-3.51-.99,4.762,4.762,0,0,0-3.19,1.78L54.49,25.7,37.35,47.4a.871.871,0,0,0-.14.31.035.035,0,0,1-.01.02l-1.5,8.38a.76.76,0,0,0,.27.72.716.716,0,0,0,.46.16.8.8,0,0,0,.3-.06l7.8-3.4c.01,0,.01-.01.02-.02a.862.862,0,0,0,.27-.2l17.14-21.7,1.75-2.21A4.688,4.688,0,0,0,64.72,25.89Zm-9.51,1.33,1.97,1.56L40.97,49.3,39,47.74ZM38.46,49.23l3.41,2.7.93.73L37.43,55Zm5.66,2.56-1.98-1.56L58.35,29.71l1.98,1.56ZM62.55,28.47l-1.28,1.62-2.56-2.03-2.56-2.03,1.28-1.62a3.225,3.225,0,0,1,2.18-1.22,3.267,3.267,0,0,1,3.63,2.86A3.319,3.319,0,0,1,62.55,28.47Z" fill="#0a81b1" stroke="#0a81b1" stroke-width="1"/>
    <path id="Path_10311" data-name="Path 10311" d="M7,23.98a.755.755,0,0,0,.75-.75V20.84h2.39a.75.75,0,0,0,0-1.5H7a.755.755,0,0,0-.75.75v3.14A.743.743,0,0,0,7,23.98Z" fill="#0a81b1" stroke="#0a81b1" stroke-width="1"/>
    <path id="Path_10312" data-name="Path 10312" d="M21.93,38.92h3.14a.755.755,0,0,0,.75-.75V35.03a.75.75,0,0,0-1.5,0v2.39H21.93a.75.75,0,0,0,0,1.5Z" fill="#0a81b1" stroke="#0a81b1" stroke-width="1"/>
    <path id="Path_10313" data-name="Path 10313" d="M25.07,23.98a.755.755,0,0,0,.75-.75V20.09a.755.755,0,0,0-.75-.75H21.93a.75.75,0,0,0,0,1.5h2.39v2.39A.749.749,0,0,0,25.07,23.98Z" fill="#0a81b1" stroke="#0a81b1" stroke-width="1"/>
    <path id="Path_10314" data-name="Path 10314" d="M6.25,38.17a.755.755,0,0,0,.75.75h3.14a.75.75,0,1,0,0-1.5H7.75V35.03a.75.75,0,0,0-1.5,0Z" fill="#0a81b1" stroke="#0a81b1" stroke-width="1"/>
  </g>
</svg>
