<svg xmlns="http://www.w3.org/2000/svg" width="73.024" height="71.854" viewBox="0 0 73.024 71.854">
  <g id="noun-article-writing-7070207" transform="translate(0.5 -0.235)">
    <path id="Path_10319" data-name="Path 10319" d="M45.483,71.589H.562A.554.554,0,0,1,0,71.038V1.285A.554.554,0,0,1,.562.735H45.483a.551.551,0,0,1,.551.551V46.038a.551.551,0,1,1-1.1,0V1.835H1.112V70.487H44.932V56.263a.551.551,0,0,1,1.1,0V71.038a.551.551,0,0,1-.551.551Z" fill="#3a9bc1" stroke="#3a9bc1" stroke-width="1"/>
    <path id="Path_10320" data-name="Path 10320" d="M29.7,86.7h-2.64a2.093,2.093,0,0,1-1.494-.64L.6,59.952A2.166,2.166,0,0,1,0,58.458V55.1a.551.551,0,0,1,1.1,0v3.36a1.037,1.037,0,0,0,.292.73l24.966,26.1a.99.99,0,0,0,.7.3H29.7a.556.556,0,0,1,0,1.112Z" transform="translate(0 -15.116)" fill="#3a9bc1" stroke="#3a9bc1" stroke-width="1"/>
    <path id="Path_10321" data-name="Path 10321" d="M24.44,86.2a.551.551,0,0,1-.551-.551V66.507H5.6a.551.551,0,1,1,0-1.1H24.44a.551.551,0,0,1,.551.551V85.664a.549.549,0,0,1-.551.539Z" transform="translate(-1.418 -18.166)" fill="#3a9bc1" stroke="#3a9bc1" stroke-width="1"/>
    <path id="Path_10322" data-name="Path 10322" d="M22.379,14.143H6.66a.551.551,0,0,1-.551-.551.561.561,0,0,1,.551-.562H22.379a.551.551,0,0,1,.551.551A.561.561,0,0,1,22.379,14.143Z" transform="translate(-1.716 -3.454)" fill="#3a9bc1" stroke="#3a9bc1" stroke-width="1"/>
    <path id="Path_10323" data-name="Path 10323" d="M22.379,20.851H6.66a.551.551,0,1,1,0-1.1H22.379a.551.551,0,0,1,0,1.1Z" transform="translate(-1.716 -5.341)" fill="#3a9bc1" stroke="#3a9bc1" stroke-width="1"/>
    <path id="Path_10324" data-name="Path 10324" d="M20.042,27.57H6.66a.551.551,0,1,1,0-1.1H20.042a.551.551,0,1,1,0,1.1Z" transform="translate(-1.716 -7.229)" fill="#3a9bc1" stroke="#3a9bc1" stroke-width="1"/>
    <path id="Path_10325" data-name="Path 10325" d="M50.786,14.148H35.067a.551.551,0,1,1,0-1.1H50.786a.551.551,0,0,1,0,1.1Z" transform="translate(-9.696 -3.458)" fill="#3a9bc1" stroke="#3a9bc1" stroke-width="1"/>
    <path id="Path_10326" data-name="Path 10326" d="M50.786,20.851H35.067a.551.551,0,1,1,0-1.1H50.786a.551.551,0,0,1,0,1.1Z" transform="translate(-9.696 -5.341)" fill="#3a9bc1" stroke="#3a9bc1" stroke-width="1"/>
    <path id="Path_10327" data-name="Path 10327" d="M48.449,27.57H35.067a.551.551,0,1,1,0-1.1H48.449a.551.551,0,0,1,0,1.1Z" transform="translate(-9.696 -7.229)" fill="#3a9bc1" stroke="#3a9bc1" stroke-width="1"/>
    <path id="Path_10328" data-name="Path 10328" d="M22.379,36.914H6.66a.551.551,0,0,1,0-1.1H22.379a.551.551,0,0,1,0,1.1Z" transform="translate(-1.716 -9.853)" fill="#3a9bc1" stroke="#3a9bc1" stroke-width="1"/>
    <path id="Path_10329" data-name="Path 10329" d="M22.379,43.632H6.66a.551.551,0,1,1,0-1.1H22.379a.551.551,0,1,1,0,1.1Z" transform="translate(-1.716 -11.74)" fill="#3a9bc1" stroke="#3a9bc1" stroke-width="1"/>
    <path id="Path_10330" data-name="Path 10330" d="M20.042,50.336H6.66a.551.551,0,0,1,0-1.1H20.042a.551.551,0,0,1,0,1.1Z" transform="translate(-1.716 -13.624)" fill="#3a9bc1" stroke="#3a9bc1" stroke-width="1"/>
    <path id="Path_10331" data-name="Path 10331" d="M50.786,36.914H35.067a.551.551,0,1,1,0-1.1H50.786a.551.551,0,0,1,0,1.1Z" transform="translate(-9.696 -9.853)" fill="#3a9bc1" stroke="#3a9bc1" stroke-width="1"/>
    <path id="Path_10332" data-name="Path 10332" d="M50.786,43.632H35.067a.551.551,0,1,1,0-1.1H50.786a.551.551,0,0,1,0,1.1Z" transform="translate(-9.696 -11.74)" fill="#3a9bc1" stroke="#3a9bc1" stroke-width="1"/>
    <path id="Path_10333" data-name="Path 10333" d="M48.449,50.336H35.067a.551.551,0,1,1,0-1.1H48.449a.551.551,0,0,1,0,1.1Z" transform="translate(-9.696 -13.624)" fill="#3a9bc1" stroke="#3a9bc1" stroke-width="1"/>
    <path id="Path_10334" data-name="Path 10334" d="M54.18,71.99a.527.527,0,0,1-.393-.169l-4.955-5.112a.557.557,0,0,1,0-.764L77.067,36.8a1.234,1.234,0,0,1,1.73,0l4.023,4.146a1.256,1.256,0,0,1,0,1.73L54.584,71.822a.6.6,0,0,1-.4.169ZM50,66.316l4.18,4.315L82.011,41.9a.152.152,0,0,0,0-.191l-4.022-4.146-.539-.382.393.382Z" transform="translate(-13.674 -10.031)" fill="#3a9bc1" stroke="#3a9bc1" stroke-width="1"/>
    <path id="Path_10335" data-name="Path 10335" d="M44.926,87.285a.527.527,0,0,1-.393-.169l-.719-.742a.552.552,0,0,1-.112-.607l3.607-8.225a.553.553,0,1,1,1.011.449l-3.461,7.876.18.18,7.483-3.663a.555.555,0,1,1,.483,1l-7.843,3.843a.561.561,0,0,1-.236.056Z" transform="translate(-12.263 -21.483)" fill="#3a9bc1" stroke="#3a9bc1" stroke-width="1"/>
    <path id="Path_10336" data-name="Path 10336" d="M93.638,40.624a.556.556,0,0,1-.393-.944l2.674-2.764a.21.21,0,0,0,0-.292l-2.461-2.539c-.09-.09-.157-.09-.236,0l-2.674,2.764a.556.556,0,0,1-.8-.775l2.674-2.753a1.3,1.3,0,0,1,1.831,0l2.461,2.539a1.33,1.33,0,0,1,0,1.843l-2.674,2.753a.57.57,0,0,1-.4.169Z" transform="translate(-25.166 -9.047)" fill="#3a9bc1" stroke="#3a9bc1" stroke-width="1"/>
    <path id="Path_10337" data-name="Path 10337" d="M81.987,62.792a.556.556,0,0,1-.393-.944l9.258-9.562a1.324,1.324,0,0,0,0-1.82l-2.112-2.18a.563.563,0,0,1,.011-.787.553.553,0,0,1,.787.011l2.112,2.18a2.43,2.43,0,0,1,0,3.36l-9.258,9.562a.539.539,0,0,1-.4.18Z" transform="translate(-22.875 -13.092)" fill="#3a9bc1" stroke="#3a9bc1" stroke-width="1"/>
  </g>
</svg>
