<svg xmlns="http://www.w3.org/2000/svg" width="34.13" height="69.032" viewBox="0 0 34.13 69.032">
  <g id="Group_1846" data-name="Group 1846" transform="translate(-192.273 -2.281)">
    <path id="Path_10316" data-name="Path 10316" d="M226.044,78.491A17.051,17.051,0,0,0,213.913,65.54a16.455,16.455,0,0,0-2.448-.492,17.475,17.475,0,0,0-3.244-.1A17.128,17.128,0,0,0,192.327,80.6a17.45,17.45,0,0,0,0,2.751.045.045,0,0,0,0,.021,17,17,0,0,0,4.755,10.478,16.068,16.068,0,0,0,1.47,1.353c.189.155.379.3.571.447,0,0,0,0,0,0,.32.238.651.468.988.682a.88.88,0,0,0,.076.052c.076.048.148.1.22.148a4.322,4.322,0,0,1,1.811,3.495v1.488a2.72,2.72,0,0,0,.048.506,2.582,2.582,0,0,0,2.531,2.073h9.063a2.58,2.58,0,0,0,2.579-2.579v-1.484a4.36,4.36,0,0,1,2.056-3.66,17.093,17.093,0,0,0,7.637-11.4c.014-.076.028-.148.038-.224a17.189,17.189,0,0,0-.134-6.257Zm-3.264,5.7-.014.107-.017.076a13.531,13.531,0,0,1-3.626,7.083,13.834,13.834,0,0,1-2.469,2.014,7.787,7.787,0,0,0-3.65,6.566.621.621,0,0,1-.62.62h-2.108V89.732h2.917a3.487,3.487,0,0,0,.352.018,3.389,3.389,0,1,0-3.127-2.084h-2.183a3.388,3.388,0,1,0-3.127,2.084,3.48,3.48,0,0,0,.352-.018h2.75v10.92H206.29a.621.621,0,0,1-.62-.62v0a7.744,7.744,0,0,0-3.623-6.549c-.258-.162-.516-.338-.8-.544l-.055-.041a13.89,13.89,0,0,1-3.058-3.172,13.47,13.47,0,0,1-2.39-8.656c0-.065.007-.134.014-.2a13.457,13.457,0,0,1,2.469-6.766,13.775,13.775,0,0,1,6.5-4.941,13.4,13.4,0,0,1,3.705-.772c.3-.021.6-.028.892-.028a14.063,14.063,0,0,1,1.711.1,13.135,13.135,0,0,1,1.939.389,13.614,13.614,0,0,1,9.979,13.126A13.339,13.339,0,0,1,222.78,84.186Zm-10.557,2.176a1.322,1.322,0,1,1,1.322,1.322A1.325,1.325,0,0,1,212.222,86.362Zm-5.792,0a1.321,1.321,0,0,1-1.141,1.3h-.351a1.319,1.319,0,1,1,1.492-1.305Z" transform="translate(0 -53.458)" fill="#0b81b1"/>
    <rect id="Rectangle_94" data-name="Rectangle 94" width="2.066" height="5.657" transform="translate(208.331 2.281)" fill="#0b81b1"/>
    <rect id="Rectangle_95" data-name="Rectangle 95" width="2.066" height="5.878" transform="translate(216.932 2.827) rotate(27.324)" fill="#0b81b1"/>
    <rect id="Rectangle_96" data-name="Rectangle 96" width="5.34" height="2.066" transform="translate(202.29 2.934) rotate(69.225)" fill="#0b81b1"/>
    <path id="Path_10317" data-name="Path 10317" d="M278.363,416.314a.107.107,0,0,0-.145,0l-2.1,2.028a2.2,2.2,0,0,1-1.495.585,2.151,2.151,0,0,1-1.512-.616l-2.069-1.925a.148.148,0,0,0-.1-.048.093.093,0,0,0-.076.034l-2.028,2.021a1.142,1.142,0,0,1-.2.151l3.461,3.908.005,0,1.654,1.868a.993.993,0,0,0,1.492,0l1.675-1.892h0l3.488-3.936c.034-.038.065-.076.1-.117a1.007,1.007,0,0,1-.093-.079Z" transform="translate(-65.179 -353.342)" fill="#0b81b1"/>
    <path id="Path_10318" data-name="Path 10318" d="M275.433,353.428h-9.118a1.92,1.92,0,0,0-1.763,1.15,1.9,1.9,0,0,0-.165.782v7.286l1.377-1.374a2.153,2.153,0,0,1,1.522-.647,2.125,2.125,0,0,1,1.546.62l2.069,1.925a.116.116,0,0,0,.165.021l2.1-2.028a2.183,2.183,0,0,1,2.985.01l1.209,1.161V355.36A1.933,1.933,0,0,0,275.433,353.428Z" transform="translate(-61.548 -299.695)" fill="#0b81b1"/>
  </g>
</svg>
