<svg xmlns="http://www.w3.org/2000/svg" width="67.805" height="73.405" viewBox="0 0 67.805 73.405">
  <g id="Group_1841" data-name="Group 1841" transform="translate(-13.098 -7.275)">
    <g id="Group_1834" data-name="Group 1834" transform="translate(13.598 22.776)">
      <path id="Path_10292" data-name="Path 10292" d="M79.652,78.812H71.1a3.951,3.951,0,0,0,1.153-2.742v-.659a6.051,6.051,0,0,0,0-12.087V45.6a.687.687,0,0,0-.332-.556c-.009-.006-.013-.016-.022-.021l-3.406-1.919V32.718h8.73a.717.717,0,0,0,.75-.679v-4.3a5.248,5.248,0,0,0-5.49-4.962H25.912a5.121,5.121,0,0,0-5.35,4.844V42.635l-4.246,2.389c-.01.006-.015.016-.025.022a.712.712,0,0,0-.21.189c-.006.008-.008.016-.013.024a.625.625,0,0,0-.089.235c0,.013-.012.023-.014.035s0,.017,0,.026-.007.03-.007.045V76.07a3.95,3.95,0,0,0,1.154,2.742H14.348a.682.682,0,1,0,0,1.358c64.99.123,57.2,0,65.3,0a.682.682,0,1,0,0-1.358ZM71.337,64.618a4.765,4.765,0,1,1,.075,9.5.926.926,0,0,1-.11,0,5.039,5.039,0,0,1-5.289-4.752,4.268,4.268,0,0,1,.038-.565,5.107,5.107,0,0,1,5.212-4.188Zm-1.05-18.9-1.794,1.56V44.706Zm2.2-21.583a3.814,3.814,0,0,1,3.99,3.6v3.622h-7.98V27.738A3.816,3.816,0,0,1,72.482,24.134ZM22.063,43.012V27.62a3.685,3.685,0,0,1,3.85-3.486h42.8a4.79,4.79,0,0,0-1.72,3.6V48.581L57.746,56.63H46.072a.682.682,0,1,0,0,1.358H56.186l-4.805,4.183H36.834L22.063,49.315Zm-1.5,1.222V48.01l-2.635-2.292ZM70.752,76.07A2.909,2.909,0,0,1,68.4,78.812H19.818a2.91,2.91,0,0,1-2.356-2.742V47.2L35.451,62.851l-6.965,6.1a.635.635,0,0,0-.018.96.807.807,0,0,0,1.061.016l7.305-6.394H51.381l7.3,6.394a.807.807,0,0,0,1.061-.016.635.635,0,0,0-.018-.96l-6.964-6.1C54.611,61.242,70.03,47.823,70.752,47.2v16.08a6.415,6.415,0,0,0-6.239,6.094c0,3.359,2.921,5.868,6.239,6.095v.605Z" transform="translate(-13.598 -22.776)" fill="#0c82b2" stroke="#0c82b2" stroke-width="1"/>
    </g>
    <g id="Group_1835" data-name="Group 1835" transform="translate(15.963 7.775)">
      <path id="Path_10293" data-name="Path 10293" d="M16.372,14.069c9.629,4.884,9.5,4.945,9.864,4.95l0,0H58.864a1.97,1.97,0,0,0,1.968-1.968V9.743a1.97,1.97,0,0,0-1.968-1.968H26.247c-.01,0-.019.005-.029.006-.213.006-9.729,4.89-9.844,4.95a.751.751,0,0,0,0,1.339ZM54.421,9.275h4.443a.469.469,0,0,1,.468.468v7.311a.469.469,0,0,1-.468.468H54.42Zm-27.783,0H52.92v3.374H26.638A5.215,5.215,0,0,1,26.638,9.275Zm0,4.874H52.92v3.374H26.644A5.048,5.048,0,0,1,26.64,14.149Zm-5.167-2.342L24.9,10.05a6.53,6.53,0,0,0,.43,3.351,6.243,6.243,0,0,0-.43,3.343l-3.428-1.752V11.806Zm-1.5.769v1.647l-1.61-.823Z" transform="translate(-15.963 -7.775)" fill="#0c82b2" stroke="#0c82b2" stroke-width="1"/>
    </g>
    <g id="Group_1836" data-name="Group 1836" transform="translate(26.005 26.225)">
      <path id="Path_10294" data-name="Path 10294" d="M28.8,43.225h9.475a2.8,2.8,0,0,0,2.8-2.8V30.952a2.8,2.8,0,0,0-2.8-2.8H28.8a2.8,2.8,0,0,0-2.8,2.8v9.474A2.8,2.8,0,0,0,28.8,43.225ZM27.5,30.952a1.284,1.284,0,0,1,1.3-1.3h9.475a1.284,1.284,0,0,1,1.3,1.3v9.474a1.284,1.284,0,0,1-1.3,1.3H28.8a1.284,1.284,0,0,1-1.3-1.3Z" transform="translate(-26.005 -28.154)" fill="#0c82b2" stroke="#0c82b2" stroke-width="1"/>
    </g>
    <g id="Group_1837" data-name="Group 1837" transform="translate(45.323 28.03)">
      <path id="Path_10295" data-name="Path 10295" d="M46.073,31.243H62.835a.75.75,0,0,0,0-1.5H46.073a.75.75,0,0,0,0,1.5Z" transform="translate(-45.323 -29.743)" fill="#0c82b2" stroke="#0c82b2" stroke-width="1"/>
    </g>
    <g id="Group_1838" data-name="Group 1838" transform="translate(45.323 37.381)">
      <path id="Path_10296" data-name="Path 10296" d="M46.073,41.385H62.835a.75.75,0,0,0,0-1.5H46.073a.75.75,0,0,0,0,1.5Z" transform="translate(-45.323 -39.885)" fill="#0c82b2" stroke="#0c82b2" stroke-width="1"/>
    </g>
    <g id="Group_1839" data-name="Group 1839" transform="translate(26.005 46.732)">
      <path id="Path_10297" data-name="Path 10297" d="M63.585,50.776a.75.75,0,0,0-.75-.75H26.755a.75.75,0,1,0,0,1.5h36.08A.75.75,0,0,0,63.585,50.776Z" transform="translate(-26.005 -50.026)" fill="#0c82b2" stroke="#0c82b2" stroke-width="1"/>
    </g>
    <g id="Group_1840" data-name="Group 1840" transform="translate(67.454 65.481)">
      <path id="Path_10298" data-name="Path 10298" d="M67.454,74.231a.75.75,0,0,0,.75.75h4.3l-.719.72a.75.75,0,0,0,1.061,1.061l2-2a.753.753,0,0,0,0-1.061l-2-2a.75.75,0,0,0-1.061,1.061l.72.72H68.2A.75.75,0,0,0,67.454,74.231Z" transform="translate(-67.454 -71.481)" fill="#0c82b2" stroke="#0c82b2" stroke-width="1"/>
    </g>
  </g>
</svg>
