<svg xmlns="http://www.w3.org/2000/svg" width="68.911" height="72.315" viewBox="0 0 68.911 72.315">
  <path id="Path_10315" data-name="Path 10315" d="M72.788,12.191a.95.95,0,0,1,.49.832V28.051a.947.947,0,0,1-.535.856l-12.9,7.447v0a.948.948,0,0,1-1.082-.012l-2.782-1.6,0,36.891a2.84,2.84,0,0,1-2.829,2.823H8.2a2.837,2.837,0,0,1-2.823-2.829V5.956h0A2.846,2.846,0,0,1,8.2,3.133H53.151a2.845,2.845,0,0,1,2.832,2.823v.38l2.862-1.652h0a.942.942,0,0,1,.945,0ZM13.766,60.036H47.581a.949.949,0,1,0,0-1.9H13.766a.949.949,0,0,0,0,1.9Zm0-6.374H47.581a.949.949,0,1,0,0-1.9H13.766a.949.949,0,1,0,0,1.9Zm0-6.377,33.815,0a.949.949,0,1,0,0-1.9H13.766a.949.949,0,1,0,0,1.9Zm0-6.377,33.815,0a.965.965,0,0,0,.7-.264.953.953,0,0,0,.291-.684.965.965,0,0,0-.291-.686.951.951,0,0,0-.7-.262H13.766a.948.948,0,0,0-.7,1.631.958.958,0,0,0,.7.264Zm0-6.374,33.815,0a.949.949,0,1,0,0-1.9H13.766a.949.949,0,1,0,0,1.9Zm0-6.377H42.324v.006a.949.949,0,0,0,.987-.951.942.942,0,0,0-.291-.684.959.959,0,0,0-.7-.264H13.766a.958.958,0,0,0-.7.264.942.942,0,0,0-.291.684.949.949,0,0,0,.987.951Zm5.263-8.722,23.292.006a.95.95,0,0,0,0-1.9h-23.3a.965.965,0,0,0-.7.264.953.953,0,0,0-.291.684.95.95,0,0,0,.99.951Zm35.058,14.2-8.256-4.767v.006a.946.946,0,0,1-.475-.82V13.02a.951.951,0,0,1,.556-.865L54.08,7.436V5.956a.93.93,0,0,0-.93-.93H8.2a.93.93,0,0,0-.933.93l0,65.669a.939.939,0,0,0,.936.933H53.15a.934.934,0,0,0,.93-.933V33.637Zm4.282.291V21.076L47.246,14.66V27.51l11.12,6.419ZM56.928,7.971,68.054,14.4l2.389-1.379L59.311,6.6,56.921,7.974ZM69,16.034v5.941a.949.949,0,0,1-.559.862l-4.374,2.526a.946.946,0,0,1-1.415-.817V19.707l-2.383,1.379V33.93l11.12-6.419V14.661L69.016,16.04Zm-7.3,2.027L50.577,11.639l-2.389,1.379,11.126,6.425L61.7,18.064ZM52.47,10.548,63.6,16.973,66.154,15.5,55.031,9.071,52.47,10.557Zm12.077,8.063V22.9L67.1,21.431l0-4.3Z" transform="translate(-4.867 -2.633)" fill="#218db8" stroke="#218db8" stroke-width="1" fill-rule="evenodd"/>
</svg>
